<svg width="164" height="59" viewBox="0 0 164 59" fill="none" xmlns="http://www.w3.org/2000/svg">
<path d="M24.5605 31.8304C24.5605 34.6156 22.3439 36.8735 19.6095 36.8735C16.8752 36.8735 14.6585 34.6156 14.6585 31.8304C14.6585 29.0452 16.8752 26.7874 19.6095 26.7874C22.3439 26.7874 24.5605 29.0452 24.5605 31.8304Z" fill="#8ECE18"/>
<path d="M24.5605 31.8304C24.5605 34.6156 22.3439 36.8735 19.6095 36.8735C16.8752 36.8735 14.6585 34.6156 14.6585 31.8304C14.6585 29.0452 16.8752 26.7874 19.6095 26.7874C22.3439 26.7874 24.5605 29.0452 24.5605 31.8304Z" fill="url(#paint0_linear_286_3629)"/>
<path d="M0 36.7988H6.73142L17.406 14.3279C17.9818 13.7377 18.7794 13.3723 19.6608 13.3723C20.5422 13.3723 21.3398 13.7377 21.9156 14.3279L32.5902 36.7988H39.3216L27.238 11.3619C25.7775 9.1784 23.4311 7.65894 20.7256 7.34C20.3763 7.29882 20.021 7.27766 19.6608 7.27766C19.3007 7.27766 18.9454 7.29882 18.596 7.34C15.8905 7.65894 13.5441 9.1784 12.0836 11.3619L0 36.7988Z" fill="#8ECE18"/>
<path d="M0 36.7988H6.73142L17.406 14.3279C17.9818 13.7377 18.7794 13.3723 19.6608 13.3723C20.5422 13.3723 21.3398 13.7377 21.9156 14.3279L32.5902 36.7988H39.3216L27.238 11.3619C25.7775 9.1784 23.4311 7.65894 20.7256 7.34C20.3763 7.29882 20.021 7.27766 19.6608 7.27766C19.3007 7.27766 18.9454 7.29882 18.596 7.34C15.8905 7.65894 13.5441 9.1784 12.0836 11.3619L0 36.7988Z" fill="url(#paint1_linear_286_3629)"/>
<path fill-rule="evenodd" clip-rule="evenodd" d="M45.076 22.7444C45.076 20.0203 45.6284 17.608 46.733 15.5075C47.8702 13.407 49.3972 11.7824 51.3141 10.6337C53.2635 9.45221 55.4079 8.86144 57.7472 8.86144C59.859 8.86144 61.6947 9.28811 63.2542 10.1414C64.8462 10.9619 66.1133 11.9958 67.0556 13.2429V9.30452H72.6601V36.4304H67.0556V32.3935C66.1133 33.6735 64.83 34.7401 63.2055 35.5935C61.581 36.4468 59.729 36.8735 57.6497 36.8735C55.3429 36.8735 53.231 36.2827 51.3141 35.1012C49.3972 33.8868 47.8702 32.213 46.733 30.0797C45.6284 27.9135 45.076 25.4684 45.076 22.7444ZM65.8859 17.969C66.6657 19.3475 67.0556 20.9721 67.0556 22.8428C67.0556 24.7136 66.6657 26.3546 65.8859 27.7659C65.1386 29.1443 64.1477 30.1945 62.9131 30.9166C61.6785 31.6386 60.3464 31.9997 58.9168 31.9997C57.5197 31.9997 56.1876 31.6386 54.9205 30.9166C53.6859 30.1617 52.6787 29.0787 51.8989 27.6674C51.1517 26.2561 50.778 24.6151 50.778 22.7444C50.778 20.8736 51.1517 19.2654 51.8989 17.9198C52.6787 16.5414 53.6859 15.5075 54.9205 14.8183C56.1551 14.0963 57.4872 13.7352 58.9168 13.7352C60.3464 13.7352 61.6785 14.0963 62.9131 14.8183C64.1477 15.5403 65.1386 16.5906 65.8859 17.969Z" fill="#8ECE18"/>
<path fill-rule="evenodd" clip-rule="evenodd" d="M45.076 22.7444C45.076 20.0203 45.6284 17.608 46.733 15.5075C47.8702 13.407 49.3972 11.7824 51.3141 10.6337C53.2635 9.45221 55.4079 8.86144 57.7472 8.86144C59.859 8.86144 61.6947 9.28811 63.2542 10.1414C64.8462 10.9619 66.1133 11.9958 67.0556 13.2429V9.30452H72.6601V36.4304H67.0556V32.3935C66.1133 33.6735 64.83 34.7401 63.2055 35.5935C61.581 36.4468 59.729 36.8735 57.6497 36.8735C55.3429 36.8735 53.231 36.2827 51.3141 35.1012C49.3972 33.8868 47.8702 32.213 46.733 30.0797C45.6284 27.9135 45.076 25.4684 45.076 22.7444ZM65.8859 17.969C66.6657 19.3475 67.0556 20.9721 67.0556 22.8428C67.0556 24.7136 66.6657 26.3546 65.8859 27.7659C65.1386 29.1443 64.1477 30.1945 62.9131 30.9166C61.6785 31.6386 60.3464 31.9997 58.9168 31.9997C57.5197 31.9997 56.1876 31.6386 54.9205 30.9166C53.6859 30.1617 52.6787 29.0787 51.8989 27.6674C51.1517 26.2561 50.778 24.6151 50.778 22.7444C50.778 20.8736 51.1517 19.2654 51.8989 17.9198C52.6787 16.5414 53.6859 15.5075 54.9205 14.8183C56.1551 14.0963 57.4872 13.7352 58.9168 13.7352C60.3464 13.7352 61.6785 14.0963 62.9131 14.8183C64.1477 15.5403 65.1386 16.5906 65.8859 17.969Z" fill="url(#paint2_linear_286_3629)"/>
<path d="M86.4392 13.8829V28.8982C86.4392 29.9156 86.6666 30.654 87.1215 31.1135C87.6088 31.5402 88.4211 31.7535 89.5582 31.7535H92.9697V36.4304H88.5835C86.0818 36.4304 84.1649 35.8396 82.8328 34.6581C81.5007 33.4766 80.8346 31.5566 80.8346 28.8982V13.8829H77.6669V9.30452H80.8346V2.55997H86.4392V9.30452H92.9697V13.8829H86.4392Z" fill="#8ECE18"/>
<path d="M86.4392 13.8829V28.8982C86.4392 29.9156 86.6666 30.654 87.1215 31.1135C87.6088 31.5402 88.4211 31.7535 89.5582 31.7535H92.9697V36.4304H88.5835C86.0818 36.4304 84.1649 35.8396 82.8328 34.6581C81.5007 33.4766 80.8346 31.5566 80.8346 28.8982V13.8829H77.6669V9.30452H80.8346V2.55997H86.4392V9.30452H92.9697V13.8829H86.4392Z" fill="url(#paint3_linear_286_3629)"/>
<path d="M103.646 0V36.4304H98.0903V0H103.646Z" fill="#8ECE18"/>
<path d="M103.646 0V36.4304H98.0903V0H103.646Z" fill="url(#paint4_linear_286_3629)"/>
<path fill-rule="evenodd" clip-rule="evenodd" d="M109.088 22.7444C109.088 20.0203 109.641 17.608 110.745 15.5075C111.883 13.407 113.41 11.7824 115.327 10.6337C117.276 9.45221 119.42 8.86144 121.76 8.86144C123.871 8.86144 125.707 9.28811 127.267 10.1414C128.859 10.9619 130.126 11.9958 131.068 13.2429V9.30452H136.673V36.4304H131.068V32.3935C130.126 33.6735 128.842 34.7401 127.218 35.5935C125.593 36.4468 123.741 36.8735 121.662 36.8735C119.355 36.8735 117.243 36.2827 115.327 35.1012C113.41 33.8868 111.883 32.213 110.745 30.0797C109.641 27.9135 109.088 25.4684 109.088 22.7444ZM129.898 17.969C130.678 19.3475 131.068 20.9721 131.068 22.8428C131.068 24.7136 130.678 26.3546 129.898 27.7659C129.151 29.1443 128.16 30.1945 126.926 30.9166C125.691 31.6386 124.359 31.9997 122.929 31.9997C121.532 31.9997 120.2 31.6386 118.933 30.9166C117.698 30.1617 116.691 29.0787 115.911 27.6674C115.164 26.2561 114.79 24.6151 114.79 22.7444C114.79 20.8736 115.164 19.2654 115.911 17.9198C116.691 16.5414 117.698 15.5075 118.933 14.8183C120.168 14.0963 121.5 13.7352 122.929 13.7352C124.359 13.7352 125.691 14.0963 126.926 14.8183C128.16 15.5403 129.151 16.5906 129.898 17.969Z" fill="#8ECE18"/>
<path fill-rule="evenodd" clip-rule="evenodd" d="M109.088 22.7444C109.088 20.0203 109.641 17.608 110.745 15.5075C111.883 13.407 113.41 11.7824 115.327 10.6337C117.276 9.45221 119.42 8.86144 121.76 8.86144C123.871 8.86144 125.707 9.28811 127.267 10.1414C128.859 10.9619 130.126 11.9958 131.068 13.2429V9.30452H136.673V36.4304H131.068V32.3935C130.126 33.6735 128.842 34.7401 127.218 35.5935C125.593 36.4468 123.741 36.8735 121.662 36.8735C119.355 36.8735 117.243 36.2827 115.327 35.1012C113.41 33.8868 111.883 32.213 110.745 30.0797C109.641 27.9135 109.088 25.4684 109.088 22.7444ZM129.898 17.969C130.678 19.3475 131.068 20.9721 131.068 22.8428C131.068 24.7136 130.678 26.3546 129.898 27.7659C129.151 29.1443 128.16 30.1945 126.926 30.9166C125.691 31.6386 124.359 31.9997 122.929 31.9997C121.532 31.9997 120.2 31.6386 118.933 30.9166C117.698 30.1617 116.691 29.0787 115.911 27.6674C115.164 26.2561 114.79 24.6151 114.79 22.7444C114.79 20.8736 115.164 19.2654 115.911 17.9198C116.691 16.5414 117.698 15.5075 118.933 14.8183C120.168 14.0963 121.5 13.7352 122.929 13.7352C124.359 13.7352 125.691 14.0963 126.926 14.8183C128.16 15.5403 129.151 16.5906 129.898 17.969Z" fill="url(#paint5_linear_286_3629)"/>
<path d="M153.717 36.8735C151.605 36.8735 149.704 36.496 148.015 35.7412C146.358 34.9535 145.042 33.9032 144.067 32.5904C143.093 31.2448 142.573 29.7515 142.508 28.1105H148.259C148.356 29.2592 148.892 30.2274 149.867 31.0151C150.874 31.7699 152.125 32.1473 153.619 32.1473C155.179 32.1473 156.381 31.852 157.226 31.2612C158.103 30.6376 158.542 29.8499 158.542 28.8982C158.542 27.8807 158.054 27.1259 157.08 26.6336C156.137 26.1413 154.627 25.5997 152.547 25.009C150.533 24.451 148.892 23.9095 147.625 23.3844C146.358 22.8592 145.253 22.0551 144.311 20.9721C143.401 19.889 142.946 18.4613 142.946 16.6891C142.946 15.245 143.369 13.9322 144.214 12.7506C145.058 11.5363 146.26 10.5845 147.82 9.89528C149.412 9.20606 151.231 8.86144 153.278 8.86144C156.332 8.86144 158.785 9.64913 160.637 11.2245C162.522 12.767 163.529 14.8839 163.659 17.5752H158.103C158.006 16.3609 157.518 15.3927 156.641 14.6706C155.764 13.9486 154.578 13.5875 153.083 13.5875C151.621 13.5875 150.5 13.8665 149.721 14.4245C148.941 14.9824 148.551 15.7209 148.551 16.6398C148.551 17.3619 148.811 17.969 149.331 18.4613C149.851 18.9536 150.484 19.3475 151.231 19.6429C151.979 19.9054 153.083 20.25 154.545 20.6767C156.495 21.2018 158.087 21.7434 159.321 22.3013C160.589 22.8264 161.677 23.6141 162.587 24.6644C163.496 25.7146 163.968 27.1095 164 28.8489C164 30.3915 163.578 31.7699 162.733 32.9843C161.888 34.1986 160.686 35.1504 159.126 35.8396C157.599 36.5288 155.796 36.8735 153.717 36.8735Z" fill="#8ECE18"/>
<path d="M153.717 36.8735C151.605 36.8735 149.704 36.496 148.015 35.7412C146.358 34.9535 145.042 33.9032 144.067 32.5904C143.093 31.2448 142.573 29.7515 142.508 28.1105H148.259C148.356 29.2592 148.892 30.2274 149.867 31.0151C150.874 31.7699 152.125 32.1473 153.619 32.1473C155.179 32.1473 156.381 31.852 157.226 31.2612C158.103 30.6376 158.542 29.8499 158.542 28.8982C158.542 27.8807 158.054 27.1259 157.08 26.6336C156.137 26.1413 154.627 25.5997 152.547 25.009C150.533 24.451 148.892 23.9095 147.625 23.3844C146.358 22.8592 145.253 22.0551 144.311 20.9721C143.401 19.889 142.946 18.4613 142.946 16.6891C142.946 15.245 143.369 13.9322 144.214 12.7506C145.058 11.5363 146.26 10.5845 147.82 9.89528C149.412 9.20606 151.231 8.86144 153.278 8.86144C156.332 8.86144 158.785 9.64913 160.637 11.2245C162.522 12.767 163.529 14.8839 163.659 17.5752H158.103C158.006 16.3609 157.518 15.3927 156.641 14.6706C155.764 13.9486 154.578 13.5875 153.083 13.5875C151.621 13.5875 150.5 13.8665 149.721 14.4245C148.941 14.9824 148.551 15.7209 148.551 16.6398C148.551 17.3619 148.811 17.969 149.331 18.4613C149.851 18.9536 150.484 19.3475 151.231 19.6429C151.979 19.9054 153.083 20.25 154.545 20.6767C156.495 21.2018 158.087 21.7434 159.321 22.3013C160.589 22.8264 161.677 23.6141 162.587 24.6644C163.496 25.7146 163.968 27.1095 164 28.8489C164 30.3915 163.578 31.7699 162.733 32.9843C161.888 34.1986 160.686 35.1504 159.126 35.8396C157.599 36.5288 155.796 36.8735 153.717 36.8735Z" fill="url(#paint6_linear_286_3629)"/>
<path d="M77.5017 55.8922V46.3519H80.8591C81.9734 46.3519 82.7878 46.588 83.3021 47.0602C83.8164 47.5324 84.0736 48.1733 84.0736 48.9827C84.0736 49.4646 83.9355 49.903 83.6593 50.2981C83.3831 50.6836 82.9926 50.9293 82.4878 51.0353V51.0498C83.0497 51.1558 83.4926 51.416 83.8164 51.8304C84.1498 52.2351 84.3165 52.6977 84.3165 53.218C84.3165 54.0275 84.0164 54.678 83.4164 55.1694C82.8164 55.6513 81.9592 55.8922 80.8448 55.8922H77.5017ZM78.6446 54.8081H81.1162C81.7925 54.8081 82.2925 54.6683 82.6164 54.3889C82.9497 54.1094 83.1164 53.7191 83.1164 53.218C83.1164 52.7073 82.9497 52.317 82.6164 52.0472C82.2925 51.7677 81.7925 51.628 81.1162 51.628H78.6446V54.8081ZM78.6446 50.5439H80.8734C82.2068 50.5439 82.8735 50.0235 82.8735 48.9827C82.8735 47.9516 82.2068 47.4361 80.8734 47.4361H78.6446V50.5439Z" fill="#8ECE18"/>
<path d="M77.5017 55.8922V46.3519H80.8591C81.9734 46.3519 82.7878 46.588 83.3021 47.0602C83.8164 47.5324 84.0736 48.1733 84.0736 48.9827C84.0736 49.4646 83.9355 49.903 83.6593 50.2981C83.3831 50.6836 82.9926 50.9293 82.4878 51.0353V51.0498C83.0497 51.1558 83.4926 51.416 83.8164 51.8304C84.1498 52.2351 84.3165 52.6977 84.3165 53.218C84.3165 54.0275 84.0164 54.678 83.4164 55.1694C82.8164 55.6513 81.9592 55.8922 80.8448 55.8922H77.5017ZM78.6446 54.8081H81.1162C81.7925 54.8081 82.2925 54.6683 82.6164 54.3889C82.9497 54.1094 83.1164 53.7191 83.1164 53.218C83.1164 52.7073 82.9497 52.317 82.6164 52.0472C82.2925 51.7677 81.7925 51.628 81.1162 51.628H78.6446V54.8081ZM78.6446 50.5439H80.8734C82.2068 50.5439 82.8735 50.0235 82.8735 48.9827C82.8735 47.9516 82.2068 47.4361 80.8734 47.4361H78.6446V50.5439Z" fill="url(#paint7_linear_286_3629)"/>
<path d="M92.4931 48.6647L89.1357 57.1064C88.9547 57.5786 88.7547 57.9496 88.5356 58.2194C88.3261 58.4989 88.088 58.6964 87.8213 58.8121C87.5641 58.9374 87.2641 59 86.9212 59C86.5974 59 86.2974 58.9518 86.0212 58.8555C85.7545 58.7687 85.5164 58.6483 85.3068 58.4941L85.6211 57.4822C85.8116 57.6557 86.0117 57.781 86.2212 57.8581C86.4403 57.9448 86.6546 57.9882 86.8641 57.9882C87.1117 57.9882 87.3451 57.9111 87.5641 57.7569C87.7832 57.6027 87.9832 57.2895 88.1642 56.8173L88.5356 55.8777L87.8213 54.1576L85.5497 48.6647H86.8498L88.6357 53.377L89.0785 54.6635L89.5929 53.2325L91.2644 48.6647H92.4931Z" fill="#8ECE18"/>
<path d="M92.4931 48.6647L89.1357 57.1064C88.9547 57.5786 88.7547 57.9496 88.5356 58.2194C88.3261 58.4989 88.088 58.6964 87.8213 58.8121C87.5641 58.9374 87.2641 59 86.9212 59C86.5974 59 86.2974 58.9518 86.0212 58.8555C85.7545 58.7687 85.5164 58.6483 85.3068 58.4941L85.6211 57.4822C85.8116 57.6557 86.0117 57.781 86.2212 57.8581C86.4403 57.9448 86.6546 57.9882 86.8641 57.9882C87.1117 57.9882 87.3451 57.9111 87.5641 57.7569C87.7832 57.6027 87.9832 57.2895 88.1642 56.8173L88.5356 55.8777L87.8213 54.1576L85.5497 48.6647H86.8498L88.6357 53.377L89.0785 54.6635L89.5929 53.2325L91.2644 48.6647H92.4931Z" fill="url(#paint8_linear_286_3629)"/>
<path d="M102.509 46.2074C103.404 46.2074 104.176 46.4098 104.823 46.8145C105.481 47.2096 105.985 47.7733 106.338 48.5057C106.7 49.2381 106.881 50.1102 106.881 51.1221C106.881 52.1339 106.7 53.006 106.338 53.7384C105.985 54.4708 105.481 55.0394 104.823 55.4441C104.176 55.8392 103.404 56.0367 102.509 56.0367C101.614 56.0367 100.837 55.8392 100.18 55.4441C99.5325 55.0394 99.0277 54.4708 98.6657 53.7384C98.3133 53.006 98.1371 52.1339 98.1371 51.1221C98.1371 50.1102 98.3133 49.2381 98.6657 48.5057C99.0277 47.7733 99.5325 47.2096 100.18 46.8145C100.837 46.4098 101.614 46.2074 102.509 46.2074ZM102.509 47.2915C101.861 47.2915 101.299 47.4457 100.823 47.7541C100.347 48.0528 99.9801 48.4913 99.723 49.0695C99.4658 49.638 99.3372 50.3222 99.3372 51.1221C99.3372 51.9219 99.4658 52.6109 99.723 53.1891C99.9801 53.7577 100.347 54.1961 100.823 54.5045C101.299 54.8033 101.861 54.9526 102.509 54.9526C103.166 54.9526 103.728 54.8033 104.195 54.5045C104.671 54.1961 105.038 53.7577 105.295 53.1891C105.552 52.6109 105.681 51.9219 105.681 51.1221C105.681 50.3222 105.552 49.638 105.295 49.0695C105.038 48.4913 104.671 48.0528 104.195 47.7541C103.728 47.4457 103.166 47.2915 102.509 47.2915Z" fill="#8ECE18"/>
<path d="M102.509 46.2074C103.404 46.2074 104.176 46.4098 104.823 46.8145C105.481 47.2096 105.985 47.7733 106.338 48.5057C106.7 49.2381 106.881 50.1102 106.881 51.1221C106.881 52.1339 106.7 53.006 106.338 53.7384C105.985 54.4708 105.481 55.0394 104.823 55.4441C104.176 55.8392 103.404 56.0367 102.509 56.0367C101.614 56.0367 100.837 55.8392 100.18 55.4441C99.5325 55.0394 99.0277 54.4708 98.6657 53.7384C98.3133 53.006 98.1371 52.1339 98.1371 51.1221C98.1371 50.1102 98.3133 49.2381 98.6657 48.5057C99.0277 47.7733 99.5325 47.2096 100.18 46.8145C100.837 46.4098 101.614 46.2074 102.509 46.2074ZM102.509 47.2915C101.861 47.2915 101.299 47.4457 100.823 47.7541C100.347 48.0528 99.9801 48.4913 99.723 49.0695C99.4658 49.638 99.3372 50.3222 99.3372 51.1221C99.3372 51.9219 99.4658 52.6109 99.723 53.1891C99.9801 53.7577 100.347 54.1961 100.823 54.5045C101.299 54.8033 101.861 54.9526 102.509 54.9526C103.166 54.9526 103.728 54.8033 104.195 54.5045C104.671 54.1961 105.038 53.7577 105.295 53.1891C105.552 52.6109 105.681 51.9219 105.681 51.1221C105.681 50.3222 105.552 49.638 105.295 49.0695C105.038 48.4913 104.671 48.0528 104.195 47.7541C103.728 47.4457 103.166 47.2915 102.509 47.2915Z" fill="url(#paint9_linear_286_3629)"/>
<path d="M109.112 55.8922V48.6647H110.112L110.212 50.2837L110.026 50.1247C110.178 49.7392 110.383 49.4308 110.64 49.1996C110.898 48.9586 111.193 48.7852 111.526 48.6792C111.869 48.5732 112.221 48.5202 112.583 48.5202C113.098 48.5202 113.564 48.6214 113.983 48.8237C114.403 49.0165 114.736 49.3152 114.984 49.7199C115.241 50.1247 115.369 50.6402 115.369 51.2666V55.8922H114.226V51.6714C114.226 50.8715 114.055 50.3174 113.712 50.009C113.379 49.691 112.964 49.532 112.469 49.532C112.126 49.532 111.783 49.6139 111.44 49.7778C111.098 49.9416 110.812 50.2066 110.583 50.5728C110.364 50.939 110.255 51.4304 110.255 52.0472V55.8922H109.112Z" fill="#8ECE18"/>
<path d="M109.112 55.8922V48.6647H110.112L110.212 50.2837L110.026 50.1247C110.178 49.7392 110.383 49.4308 110.64 49.1996C110.898 48.9586 111.193 48.7852 111.526 48.6792C111.869 48.5732 112.221 48.5202 112.583 48.5202C113.098 48.5202 113.564 48.6214 113.983 48.8237C114.403 49.0165 114.736 49.3152 114.984 49.7199C115.241 50.1247 115.369 50.6402 115.369 51.2666V55.8922H114.226V51.6714C114.226 50.8715 114.055 50.3174 113.712 50.009C113.379 49.691 112.964 49.532 112.469 49.532C112.126 49.532 111.783 49.6139 111.44 49.7778C111.098 49.9416 110.812 50.2066 110.583 50.5728C110.364 50.939 110.255 51.4304 110.255 52.0472V55.8922H109.112Z" fill="url(#paint10_linear_286_3629)"/>
<path d="M120.943 56.0367C120.267 56.0367 119.662 55.8874 119.129 55.5886C118.605 55.2899 118.195 54.8611 117.9 54.3022C117.605 53.7336 117.457 53.059 117.457 52.2785C117.457 51.4979 117.605 50.8281 117.9 50.2692C118.195 49.7007 118.6 49.267 119.114 48.9683C119.629 48.6695 120.215 48.5202 120.872 48.5202C121.538 48.5202 122.105 48.6647 122.572 48.9538C123.048 49.2429 123.41 49.638 123.658 50.1391C123.905 50.6306 124.029 51.1847 124.029 51.8014C124.029 51.9653 124.024 52.1146 124.015 52.2495C124.005 52.3845 123.991 52.5049 123.972 52.6109H118.2V51.5846H123.472L122.886 51.7003C122.886 51.0064 122.696 50.4716 122.315 50.0958C121.943 49.7199 121.453 49.532 120.843 49.532C120.376 49.532 119.972 49.6428 119.629 49.8645C119.295 50.0765 119.033 50.3897 118.843 50.8041C118.662 51.2088 118.572 51.7003 118.572 52.2785C118.572 52.847 118.667 53.3385 118.857 53.7529C119.048 54.1672 119.314 54.4852 119.657 54.7069C120.01 54.9189 120.429 55.0249 120.915 55.0249C121.438 55.0249 121.862 54.9237 122.186 54.7213C122.519 54.519 122.786 54.2443 122.986 53.8974L123.886 54.4322C123.705 54.7599 123.472 55.0442 123.186 55.2851C122.91 55.526 122.581 55.7139 122.2 55.8488C121.829 55.9741 121.41 56.0367 120.943 56.0367Z" fill="#8ECE18"/>
<path d="M120.943 56.0367C120.267 56.0367 119.662 55.8874 119.129 55.5886C118.605 55.2899 118.195 54.8611 117.9 54.3022C117.605 53.7336 117.457 53.059 117.457 52.2785C117.457 51.4979 117.605 50.8281 117.9 50.2692C118.195 49.7007 118.6 49.267 119.114 48.9683C119.629 48.6695 120.215 48.5202 120.872 48.5202C121.538 48.5202 122.105 48.6647 122.572 48.9538C123.048 49.2429 123.41 49.638 123.658 50.1391C123.905 50.6306 124.029 51.1847 124.029 51.8014C124.029 51.9653 124.024 52.1146 124.015 52.2495C124.005 52.3845 123.991 52.5049 123.972 52.6109H118.2V51.5846H123.472L122.886 51.7003C122.886 51.0064 122.696 50.4716 122.315 50.0958C121.943 49.7199 121.453 49.532 120.843 49.532C120.376 49.532 119.972 49.6428 119.629 49.8645C119.295 50.0765 119.033 50.3897 118.843 50.8041C118.662 51.2088 118.572 51.7003 118.572 52.2785C118.572 52.847 118.667 53.3385 118.857 53.7529C119.048 54.1672 119.314 54.4852 119.657 54.7069C120.01 54.9189 120.429 55.0249 120.915 55.0249C121.438 55.0249 121.862 54.9237 122.186 54.7213C122.519 54.519 122.786 54.2443 122.986 53.8974L123.886 54.4322C123.705 54.7599 123.472 55.0442 123.186 55.2851C122.91 55.526 122.581 55.7139 122.2 55.8488C121.829 55.9741 121.41 56.0367 120.943 56.0367Z" fill="url(#paint11_linear_286_3629)"/>
<path d="M126.203 55.8922V48.6647H127.131L127.289 49.85C127.489 49.4067 127.779 49.0743 128.16 48.8526C128.551 48.631 129.022 48.5202 129.574 48.5202C129.698 48.5202 129.832 48.5298 129.974 48.5491C130.127 48.5684 130.255 48.6069 130.36 48.6647L130.16 49.7199C130.055 49.6814 129.941 49.6525 129.817 49.6332C129.693 49.6139 129.517 49.6043 129.289 49.6043C128.993 49.6043 128.693 49.691 128.389 49.8645C128.093 50.0379 127.846 50.303 127.646 50.6595C127.446 51.0064 127.346 51.4497 127.346 51.9894V55.8922H126.203Z" fill="#8ECE18"/>
<path d="M126.203 55.8922V48.6647H127.131L127.289 49.85C127.489 49.4067 127.779 49.0743 128.16 48.8526C128.551 48.631 129.022 48.5202 129.574 48.5202C129.698 48.5202 129.832 48.5298 129.974 48.5491C130.127 48.5684 130.255 48.6069 130.36 48.6647L130.16 49.7199C130.055 49.6814 129.941 49.6525 129.817 49.6332C129.693 49.6139 129.517 49.6043 129.289 49.6043C128.993 49.6043 128.693 49.691 128.389 49.8645C128.093 50.0379 127.846 50.303 127.646 50.6595C127.446 51.0064 127.346 51.4497 127.346 51.9894V55.8922H126.203Z" fill="url(#paint12_linear_286_3629)"/>
<path d="M134.797 56.0367C134.121 56.0367 133.516 55.8874 132.983 55.5886C132.459 55.2899 132.05 54.8611 131.754 54.3022C131.459 53.7336 131.311 53.059 131.311 52.2785C131.311 51.4979 131.459 50.8281 131.754 50.2692C132.05 49.7007 132.454 49.267 132.969 48.9683C133.483 48.6695 134.069 48.5202 134.726 48.5202C135.393 48.5202 135.959 48.6647 136.426 48.9538C136.902 49.2429 137.264 49.638 137.512 50.1391C137.759 50.6306 137.883 51.1847 137.883 51.8014C137.883 51.9653 137.879 52.1146 137.869 52.2495C137.859 52.3845 137.845 52.5049 137.826 52.6109H132.054V51.5846H137.326L136.74 51.7003C136.74 51.0064 136.55 50.4716 136.169 50.0958C135.797 49.7199 135.307 49.532 134.697 49.532C134.231 49.532 133.826 49.6428 133.483 49.8645C133.15 50.0765 132.888 50.3897 132.697 50.8041C132.516 51.2088 132.426 51.7003 132.426 52.2785C132.426 52.847 132.521 53.3385 132.712 53.7529C132.902 54.1672 133.169 54.4852 133.512 54.7069C133.864 54.9189 134.283 55.0249 134.769 55.0249C135.293 55.0249 135.716 54.9237 136.04 54.7213C136.374 54.519 136.64 54.2443 136.84 53.8974L137.74 54.4322C137.559 54.7599 137.326 55.0442 137.04 55.2851C136.764 55.526 136.436 55.7139 136.055 55.8488C135.683 55.9741 135.264 56.0367 134.797 56.0367Z" fill="#8ECE18"/>
<path d="M134.797 56.0367C134.121 56.0367 133.516 55.8874 132.983 55.5886C132.459 55.2899 132.05 54.8611 131.754 54.3022C131.459 53.7336 131.311 53.059 131.311 52.2785C131.311 51.4979 131.459 50.8281 131.754 50.2692C132.05 49.7007 132.454 49.267 132.969 48.9683C133.483 48.6695 134.069 48.5202 134.726 48.5202C135.393 48.5202 135.959 48.6647 136.426 48.9538C136.902 49.2429 137.264 49.638 137.512 50.1391C137.759 50.6306 137.883 51.1847 137.883 51.8014C137.883 51.9653 137.879 52.1146 137.869 52.2495C137.859 52.3845 137.845 52.5049 137.826 52.6109H132.054V51.5846H137.326L136.74 51.7003C136.74 51.0064 136.55 50.4716 136.169 50.0958C135.797 49.7199 135.307 49.532 134.697 49.532C134.231 49.532 133.826 49.6428 133.483 49.8645C133.15 50.0765 132.888 50.3897 132.697 50.8041C132.516 51.2088 132.426 51.7003 132.426 52.2785C132.426 52.847 132.521 53.3385 132.712 53.7529C132.902 54.1672 133.169 54.4852 133.512 54.7069C133.864 54.9189 134.283 55.0249 134.769 55.0249C135.293 55.0249 135.716 54.9237 136.04 54.7213C136.374 54.519 136.64 54.2443 136.84 53.8974L137.74 54.4322C137.559 54.7599 137.326 55.0442 137.04 55.2851C136.764 55.526 136.436 55.7139 136.055 55.8488C135.683 55.9741 135.264 56.0367 134.797 56.0367Z" fill="url(#paint13_linear_286_3629)"/>
<path d="M140.057 55.8922V48.6647H141.057L141.129 49.7922C141.386 49.3489 141.719 49.0261 142.129 48.8237C142.548 48.6214 142.976 48.5202 143.414 48.5202C143.919 48.5202 144.395 48.6358 144.843 48.8671C145.291 49.0984 145.634 49.4549 145.872 49.9368C146.024 49.6091 146.238 49.3441 146.515 49.1417C146.791 48.9297 147.091 48.7756 147.415 48.6792C147.748 48.5732 148.062 48.5202 148.358 48.5202C148.815 48.5202 149.248 48.6165 149.658 48.8093C150.077 49.002 150.42 49.3007 150.686 49.7055C150.953 50.1102 151.086 50.6306 151.086 51.2666V55.8922H149.943V51.3823C149.943 50.727 149.782 50.2548 149.458 49.9657C149.134 49.6766 148.734 49.532 148.258 49.532C147.886 49.532 147.539 49.6236 147.215 49.8067C146.891 49.9898 146.629 50.2596 146.429 50.6161C146.238 50.9727 146.143 51.4112 146.143 51.9315V55.8922H145V51.3823C145 50.727 144.838 50.2548 144.514 49.9657C144.191 49.6766 143.791 49.532 143.314 49.532C143 49.532 142.676 49.6188 142.343 49.7922C142.019 49.956 141.748 50.221 141.529 50.5872C141.309 50.9534 141.2 51.4353 141.2 52.0327V55.8922H140.057Z" fill="#8ECE18"/>
<path d="M140.057 55.8922V48.6647H141.057L141.129 49.7922C141.386 49.3489 141.719 49.0261 142.129 48.8237C142.548 48.6214 142.976 48.5202 143.414 48.5202C143.919 48.5202 144.395 48.6358 144.843 48.8671C145.291 49.0984 145.634 49.4549 145.872 49.9368C146.024 49.6091 146.238 49.3441 146.515 49.1417C146.791 48.9297 147.091 48.7756 147.415 48.6792C147.748 48.5732 148.062 48.5202 148.358 48.5202C148.815 48.5202 149.248 48.6165 149.658 48.8093C150.077 49.002 150.42 49.3007 150.686 49.7055C150.953 50.1102 151.086 50.6306 151.086 51.2666V55.8922H149.943V51.3823C149.943 50.727 149.782 50.2548 149.458 49.9657C149.134 49.6766 148.734 49.532 148.258 49.532C147.886 49.532 147.539 49.6236 147.215 49.8067C146.891 49.9898 146.629 50.2596 146.429 50.6161C146.238 50.9727 146.143 51.4112 146.143 51.9315V55.8922H145V51.3823C145 50.727 144.838 50.2548 144.514 49.9657C144.191 49.6766 143.791 49.532 143.314 49.532C143 49.532 142.676 49.6188 142.343 49.7922C142.019 49.956 141.748 50.221 141.529 50.5872C141.309 50.9534 141.2 51.4353 141.2 52.0327V55.8922H140.057Z" fill="url(#paint14_linear_286_3629)"/>
<path d="M154.246 47.2771C153.988 47.2771 153.779 47.2 153.617 47.0458C153.465 46.882 153.388 46.6699 153.388 46.4098C153.388 46.1496 153.465 45.9424 153.617 45.7882C153.779 45.6244 153.988 45.5425 154.246 45.5425C154.503 45.5425 154.707 45.6244 154.86 45.7882C155.022 45.9424 155.103 46.1496 155.103 46.4098C155.103 46.6699 155.022 46.882 154.86 47.0458C154.707 47.2 154.503 47.2771 154.246 47.2771ZM154.817 48.6647V55.8922H153.674V48.6647H154.817Z" fill="#8ECE18"/>
<path d="M154.246 47.2771C153.988 47.2771 153.779 47.2 153.617 47.0458C153.465 46.882 153.388 46.6699 153.388 46.4098C153.388 46.1496 153.465 45.9424 153.617 45.7882C153.779 45.6244 153.988 45.5425 154.246 45.5425C154.503 45.5425 154.707 45.6244 154.86 45.7882C155.022 45.9424 155.103 46.1496 155.103 46.4098C155.103 46.6699 155.022 46.882 154.86 47.0458C154.707 47.2 154.503 47.2771 154.246 47.2771ZM154.817 48.6647V55.8922H153.674V48.6647H154.817Z" fill="url(#paint15_linear_286_3629)"/>
<path d="M159.155 46.6121V53.8974C159.155 54.254 159.255 54.519 159.455 54.6924C159.655 54.8659 159.912 54.9526 160.226 54.9526C160.503 54.9526 160.741 54.9044 160.941 54.8081C161.141 54.7117 161.322 54.5816 161.484 54.4178L161.884 55.3863C161.665 55.5886 161.403 55.7476 161.098 55.8633C160.803 55.9789 160.46 56.0367 160.069 56.0367C159.707 56.0367 159.369 55.9741 159.055 55.8488C158.741 55.7139 158.488 55.5067 158.298 55.2273C158.117 54.9382 158.021 54.5623 158.012 54.0998V46.9301L159.155 46.6121ZM161.755 48.6647V49.6621H156.583V48.6647H161.755Z" fill="#8ECE18"/>
<path d="M159.155 46.6121V53.8974C159.155 54.254 159.255 54.519 159.455 54.6924C159.655 54.8659 159.912 54.9526 160.226 54.9526C160.503 54.9526 160.741 54.9044 160.941 54.8081C161.141 54.7117 161.322 54.5816 161.484 54.4178L161.884 55.3863C161.665 55.5886 161.403 55.7476 161.098 55.8633C160.803 55.9789 160.46 56.0367 160.069 56.0367C159.707 56.0367 159.369 55.9741 159.055 55.8488C158.741 55.7139 158.488 55.5067 158.298 55.2273C158.117 54.9382 158.021 54.5623 158.012 54.0998V46.9301L159.155 46.6121ZM161.755 48.6647V49.6621H156.583V48.6647H161.755Z" fill="url(#paint16_linear_286_3629)"/>
<defs>
<linearGradient id="paint0_linear_286_3629" x1="-35.5635" y1="17.5689" x2="212.179" y2="-33.924" gradientUnits="userSpaceOnUse">
<stop stop-color="#EEEEEE"/>
<stop offset="1" stop-color="#659709ff"/>
</linearGradient>
<linearGradient id="paint1_linear_286_3629" x1="-35.5635" y1="17.5689" x2="212.179" y2="-33.924" gradientUnits="userSpaceOnUse">
<stop stop-color="#EEEEEE"/>
<stop offset="1" stop-color="#659709ff"/>
</linearGradient>
<linearGradient id="paint2_linear_286_3629" x1="-35.5635" y1="17.5689" x2="212.179" y2="-33.924" gradientUnits="userSpaceOnUse">
<stop stop-color="#EEEEEE"/>
<stop offset="1" stop-color="#659709ff"/>
</linearGradient>
<linearGradient id="paint3_linear_286_3629" x1="-35.5635" y1="17.5689" x2="212.179" y2="-33.924" gradientUnits="userSpaceOnUse">
<stop stop-color="#EEEEEE"/>
<stop offset="1" stop-color="#659709ff"/>
</linearGradient>
<linearGradient id="paint4_linear_286_3629" x1="-35.5635" y1="17.5689" x2="212.179" y2="-33.924" gradientUnits="userSpaceOnUse">
<stop stop-color="#EEEEEE"/>
<stop offset="1" stop-color="#659709ff"/>
</linearGradient>
<linearGradient id="paint5_linear_286_3629" x1="-35.5635" y1="17.5689" x2="212.179" y2="-33.924" gradientUnits="userSpaceOnUse">
<stop stop-color="#EEEEEE"/>
<stop offset="1" stop-color="#659709ff"/>
</linearGradient>
<linearGradient id="paint6_linear_286_3629" x1="-35.5635" y1="17.5689" x2="212.179" y2="-33.924" gradientUnits="userSpaceOnUse">
<stop stop-color="#EEEEEE"/>
<stop offset="1" stop-color="#659709ff"/>
</linearGradient>
<linearGradient id="paint7_linear_286_3629" x1="-35.5635" y1="17.5689" x2="212.179" y2="-33.924" gradientUnits="userSpaceOnUse">
<stop stop-color="#EEEEEE"/>
<stop offset="1" stop-color="#659709ff"/>
</linearGradient>
<linearGradient id="paint8_linear_286_3629" x1="-35.5635" y1="17.5689" x2="212.179" y2="-33.924" gradientUnits="userSpaceOnUse">
<stop stop-color="#EEEEEE"/>
<stop offset="1" stop-color="#659709ff"/>
</linearGradient>
<linearGradient id="paint9_linear_286_3629" x1="-35.5635" y1="17.5689" x2="212.179" y2="-33.924" gradientUnits="userSpaceOnUse">
<stop stop-color="#EEEEEE"/>
<stop offset="1" stop-color="#659709ff"/>
</linearGradient>
<linearGradient id="paint10_linear_286_3629" x1="-35.5635" y1="17.5689" x2="212.179" y2="-33.924" gradientUnits="userSpaceOnUse">
<stop stop-color="#EEEEEE"/>
<stop offset="1" stop-color="#659709ff"/>
</linearGradient>
<linearGradient id="paint11_linear_286_3629" x1="-35.5635" y1="17.5689" x2="212.179" y2="-33.924" gradientUnits="userSpaceOnUse">
<stop stop-color="#EEEEEE"/>
<stop offset="1" stop-color="#659709ff"/>
</linearGradient>
<linearGradient id="paint12_linear_286_3629" x1="-35.5635" y1="17.5689" x2="212.179" y2="-33.924" gradientUnits="userSpaceOnUse">
<stop stop-color="#EEEEEE"/>
<stop offset="1" stop-color="#659709ff"/>
</linearGradient>
<linearGradient id="paint13_linear_286_3629" x1="-35.5635" y1="17.5689" x2="212.179" y2="-33.924" gradientUnits="userSpaceOnUse">
<stop stop-color="#EEEEEE"/>
<stop offset="1" stop-color="#659709ff"/>
</linearGradient>
<linearGradient id="paint14_linear_286_3629" x1="-35.5635" y1="17.5689" x2="212.179" y2="-33.924" gradientUnits="userSpaceOnUse">
<stop stop-color="#EEEEEE"/>
<stop offset="1" stop-color="#659709ff"/>
</linearGradient>
<linearGradient id="paint15_linear_286_3629" x1="-35.5635" y1="17.5689" x2="212.179" y2="-33.924" gradientUnits="userSpaceOnUse">
<stop stop-color="#EEEEEE"/>
<stop offset="1" stop-color="#659709ff"/>
</linearGradient>
<linearGradient id="paint16_linear_286_3629" x1="-35.5635" y1="17.5689" x2="212.179" y2="-33.924" gradientUnits="userSpaceOnUse">
<stop stop-color="#EEEEEE"/>
<stop offset="1" stop-color="#659709ff"/>
</linearGradient>
</defs>
</svg>
