<svg width="20" height="21" viewBox="0 0 20 21" fill="none" xmlns="http://www.w3.org/2000/svg">
<path d="M13.3337 2.53247V5.8658M6.66699 2.53247V5.8658" stroke="" stroke-width="1.5" stroke-linecap="round" stroke-linejoin="round"/>
<path d="M10.8333 4.19897H9.16667C6.02397 4.19897 4.45262 4.19897 3.47631 5.17528C2.5 6.1516 2.5 7.72294 2.5 10.8656V12.5323C2.5 15.675 2.5 17.2464 3.47631 18.2226C4.45262 19.199 6.02397 19.199 9.16667 19.199H10.8333C13.976 19.199 15.5474 19.199 16.5237 18.2226C17.5 17.2464 17.5 15.675 17.5 12.5323V10.8656C17.5 7.72294 17.5 6.1516 16.5237 5.17528C15.5474 4.19897 13.976 4.19897 10.8333 4.19897Z" stroke="" stroke-width="1.5" stroke-linecap="round" stroke-linejoin="round"/>
<path d="M2.5 9.19897H17.5" stroke="" stroke-width="1.5" stroke-linecap="round" stroke-linejoin="round"/>
</svg>
