<svg width="29" height="29" viewBox="0 0 29 29" fill="none" xmlns="http://www.w3.org/2000/svg">
<path d="M23.8896 3.05566C22.6011 3.05566 21.5566 6.16427 21.5566 9.99894H23.8896C25.0139 9.99894 25.5761 9.99894 25.9241 9.61076C26.2722 9.22256 26.2115 8.71135 26.0904 7.68893C25.7705 4.98986 24.906 3.05566 23.8896 3.05566Z"  stroke-width="1.73582"/>
<path d="M21.5574 10.0617V22.3184C21.5574 24.0678 21.5574 24.9424 21.0228 25.2867C20.1492 25.8494 18.7987 24.6694 18.1194 24.2411C17.5582 23.8871 17.2777 23.7102 16.9662 23.7C16.6296 23.6889 16.344 23.8587 15.7377 24.2411L13.5263 25.6357C12.9298 26.0118 12.6316 26.1999 12.2997 26.1999C11.9678 26.1999 11.6695 26.0118 11.073 25.6357L8.86177 24.2411C8.30054 23.8871 8.01993 23.7102 7.70849 23.7C7.37196 23.6889 7.08637 23.8587 6.47992 24.2411C5.80073 24.6694 4.45017 25.8494 3.57657 25.2867C3.04199 24.9424 3.04199 24.0678 3.04199 22.3184V10.0617C3.04199 6.75904 3.04199 5.10769 4.05881 4.08168C5.07563 3.05566 6.71217 3.05566 9.98527 3.05566H23.8718" stroke-width="1.73582" stroke-linecap="round" stroke-linejoin="round"/>
<path d="M7.66992 7.68457H16.9276" stroke-width="1.73582" stroke-linecap="round" stroke-linejoin="round"/>
<path d="M9.98435 12.3125H7.66992" stroke-width="1.73582" stroke-linecap="round" stroke-linejoin="round"/>
<path d="M15.1919 13.3251C14.2332 13.3251 13.4561 14.005 13.4561 14.8439C13.4561 15.6828 14.2332 16.3627 15.1919 16.3627C16.1505 16.3627 16.9277 17.0427 16.9277 17.8816C16.9277 18.7205 16.1505 19.4004 15.1919 19.4004M15.1919 13.3251C15.9477 13.3251 16.5906 13.7477 16.8289 14.3376M15.1919 13.3251V12.3125M15.1919 19.4004C14.4361 19.4004 13.7932 18.9778 13.5549 18.3879M15.1919 19.4004V20.413" stroke-width="1.73582" stroke-linecap="round"/>
</svg>
