<svg width="48" height="48" viewBox="0 0 48 48" fill="none" xmlns="http://www.w3.org/2000/svg">
<path d="M8 37.2916V16.1085C8 10.4005 8 7.5465 9.75736 5.77326C11.5147 4 14.3431 4 20 4H28C33.6568 4 36.4852 4 38.2426 5.77326C40 7.5465 40 10.4005 40 16.1085V37.2916C40 40.315 40 41.8266 39.076 42.4216C37.5662 43.3942 35.2322 41.3548 34.0582 40.6146C33.0882 40.0028 32.6034 39.697 32.065 39.6794C31.4834 39.6602 30.9898 39.9536 29.9418 40.6146L26.12 43.0248C25.089 43.6748 24.5736 44 24 44C23.4264 44 22.911 43.6748 21.88 43.0248L18.0583 40.6146C17.0883 40.0028 16.6033 39.697 16.0651 39.6794C15.4834 39.6602 14.9899 39.9536 13.9417 40.6146C12.7679 41.3548 10.4337 43.3942 8.9239 42.4216C8 41.8266 8 40.315 8 37.2916Z" stroke="#00120B" stroke-width="3" stroke-linecap="round" stroke-linejoin="round"/>
<path d="M22 22H16" stroke="#00120B" stroke-width="3" stroke-linecap="round" stroke-linejoin="round"/>
<path d="M28 14H16" stroke="#00120B" stroke-width="3" stroke-linecap="round" stroke-linejoin="round"/>
</svg>
