<svg width="115" height="41" viewBox="0 0 115 41" fill="none" xmlns="http://www.w3.org/2000/svg">
<path d="M54.6403 39.0505V31.3572H57.2842C58.1944 31.3572 58.877 31.5234 59.3321 31.8557C59.7872 32.188 60.0148 32.7117 60.0148 33.4268C60.0148 33.7591 59.9425 34.0517 59.7981 34.3045C59.6536 34.5574 59.4477 34.756 59.1804 34.9005C58.9132 35.0377 58.5953 35.1064 58.2269 35.1064L58.2161 35.0413C58.8734 35.0413 59.3899 35.2183 59.7656 35.5723C60.1484 35.919 60.3398 36.3741 60.3398 36.9376C60.3398 37.6383 60.1123 38.1656 59.6572 38.5196C59.2021 38.8735 58.5556 39.0505 57.7176 39.0505H54.6403ZM55.5722 38.1403H57.7176C58.245 38.1403 58.6495 38.032 58.9312 37.8153C59.2202 37.5985 59.3646 37.2879 59.3646 36.8834C59.3646 36.4789 59.2202 36.1646 58.9312 35.9407C58.6495 35.7095 58.245 35.594 57.7176 35.594H55.5722V38.1403ZM55.5722 34.6838H57.2842C57.8477 34.6838 58.2811 34.579 58.5845 34.3695C58.8879 34.1528 59.0396 33.853 59.0396 33.4702C59.0396 33.0657 58.8915 32.7659 58.5953 32.5708C58.3064 32.3686 57.8693 32.2674 57.2842 32.2674H55.5722V34.6838Z" fill="#B9F34F"/>
<path d="M61.7963 40.6758V39.874H62.4573C62.6595 39.874 62.8076 39.8415 62.9015 39.7765C63.0027 39.7187 63.0785 39.6212 63.1291 39.4839L63.3349 38.9422H63.0207L60.9186 33.3076H61.9155L63.6275 38.097L65.2637 33.3076H66.2606L63.9309 39.7765C63.8226 40.0871 63.66 40.3147 63.4433 40.4591C63.2266 40.6036 62.9268 40.6758 62.5439 40.6758H61.7963Z" fill="#B9F34F"/>
<path d="M73.2074 39.2239C72.4778 39.2239 71.8493 39.065 71.322 38.7471C70.8018 38.422 70.4009 37.9597 70.1192 37.3602C69.8375 36.7606 69.6966 36.0454 69.6966 35.2147C69.6966 34.384 69.8375 33.6688 70.1192 33.0693C70.4009 32.4625 70.8018 31.9965 71.322 31.6715C71.8493 31.3464 72.4778 31.1839 73.2074 31.1839C73.9442 31.1839 74.5726 31.3464 75.0928 31.6715C75.6201 31.9965 76.0246 32.4625 76.3063 33.0693C76.5881 33.6688 76.7289 34.384 76.7289 35.2147C76.7289 36.0454 76.5881 36.7606 76.3063 37.3602C76.0246 37.9597 75.6201 38.422 75.0928 38.7471C74.5726 39.065 73.9442 39.2239 73.2074 39.2239ZM73.2074 38.3137C73.7419 38.3137 74.197 38.1909 74.5726 37.9453C74.9555 37.6997 75.2481 37.3457 75.4503 36.8834C75.6526 36.4211 75.7537 35.8648 75.7537 35.2147C75.7537 34.5646 75.6526 34.0083 75.4503 33.546C75.2481 33.0765 74.9555 32.7189 74.5726 32.4733C74.197 32.2205 73.7419 32.0941 73.2074 32.0941C72.68 32.0941 72.2249 32.2205 71.8421 32.4733C71.4664 32.7189 71.1775 33.0765 70.9752 33.546C70.773 34.0083 70.6718 34.5646 70.6718 35.2147C70.6718 35.8648 70.773 36.4211 70.9752 36.8834C71.1775 37.3457 71.4664 37.6997 71.8421 37.9453C72.2249 38.1909 72.68 38.3137 73.2074 38.3137Z" fill="#B9F34F"/>
<path d="M78.0862 39.0505V33.3076H78.9205L78.953 34.7705L78.8447 34.6729C78.9169 34.3334 79.0433 34.0553 79.2239 33.8386C79.4045 33.6147 79.6212 33.4485 79.874 33.3402C80.1341 33.2318 80.4122 33.1776 80.7084 33.1776C81.149 33.1776 81.5102 33.2751 81.7919 33.4702C82.0809 33.6652 82.294 33.9289 82.4312 34.2612C82.5757 34.5862 82.6479 34.951 82.6479 35.3556V39.0505H81.7378V35.6156C81.7378 35.2617 81.6944 34.9655 81.6077 34.7271C81.5283 34.4815 81.3982 34.2973 81.2176 34.1745C81.037 34.0445 80.8023 33.9795 80.5133 33.9795C80.0727 33.9795 79.7079 34.1203 79.4189 34.402C79.1372 34.6765 78.9963 35.0811 78.9963 35.6156V39.0505H78.0862Z" fill="#B9F34F"/>
<path d="M86.4982 39.1805C85.9564 39.1805 85.4869 39.0577 85.0896 38.8121C84.6995 38.5665 84.3961 38.2198 84.1794 37.7719C83.9699 37.3168 83.8652 36.7859 83.8652 36.1791C83.8652 35.5723 83.9699 35.045 84.1794 34.5971C84.3961 34.1492 84.6959 33.8025 85.0788 33.5569C85.4688 33.304 85.9275 33.1776 86.4549 33.1776C86.9533 33.1776 87.394 33.2968 87.7768 33.5352C88.1597 33.7663 88.4558 34.1059 88.6653 34.5537C88.882 35.0016 88.9904 35.547 88.9904 36.1899V36.4608H84.8187C84.8548 37.0748 85.0174 37.5371 85.3063 37.8478C85.6025 38.1584 85.9998 38.3137 86.4982 38.3137C86.8738 38.3137 87.1809 38.227 87.4192 38.0536C87.6648 37.873 87.8346 37.6383 87.9285 37.3493L88.9037 37.4252C88.752 37.9381 88.4631 38.3606 88.0369 38.6929C87.6179 39.018 87.105 39.1805 86.4982 39.1805ZM84.8187 35.659H87.9935C87.9502 35.1027 87.7877 34.6946 87.5059 34.4345C87.2314 34.1745 86.8811 34.0445 86.4549 34.0445C86.0142 34.0445 85.6494 34.1817 85.3605 34.4562C85.0788 34.7235 84.8982 35.1244 84.8187 35.659Z" fill="#B9F34F"/>
<path d="M90.2233 39.0505V33.3076H91.0251L91.0685 34.7596L90.9818 34.7271C91.054 34.2359 91.2093 33.8783 91.4477 33.6544C91.6933 33.4232 92.0184 33.3076 92.4229 33.3076H92.9864V34.1745H92.4337C92.1448 34.1745 91.9028 34.2287 91.7078 34.337C91.5199 34.4382 91.3755 34.5935 91.2743 34.803C91.1804 35.0052 91.1335 35.2653 91.1335 35.5831V39.0505H90.2233Z" fill="#B9F34F"/>
<path d="M96.1381 39.1805C95.5963 39.1805 95.1268 39.0577 94.7295 38.8121C94.3394 38.5665 94.036 38.2198 93.8193 37.7719C93.6098 37.3168 93.505 36.7859 93.505 36.1791C93.505 35.5723 93.6098 35.045 93.8193 34.5971C94.036 34.1492 94.3358 33.8025 94.7186 33.5569C95.1087 33.304 95.5674 33.1776 96.0947 33.1776C96.5932 33.1776 97.0338 33.2968 97.4167 33.5352C97.7995 33.7663 98.0957 34.1059 98.3052 34.5537C98.5219 35.0016 98.6303 35.547 98.6303 36.1899V36.4608H94.4586C94.4947 37.0748 94.6572 37.5371 94.9462 37.8478C95.2423 38.1584 95.6396 38.3137 96.1381 38.3137C96.5137 38.3137 96.8207 38.227 97.0591 38.0536C97.3047 37.873 97.4745 37.6383 97.5684 37.3493L98.5436 37.4252C98.3919 37.9381 98.1029 38.3606 97.6767 38.6929C97.2578 39.018 96.7449 39.1805 96.1381 39.1805ZM94.4586 35.659H97.6334C97.59 35.1027 97.4275 34.6946 97.1458 34.4345C96.8713 34.1745 96.5209 34.0445 96.0947 34.0445C95.6541 34.0445 95.2893 34.1817 95.0003 34.4562C94.7186 34.7235 94.538 35.1244 94.4586 35.659Z" fill="#B9F34F"/>
<path d="M99.8632 39.0505V33.3076H100.697L100.73 34.7596L100.6 34.7163C100.665 34.3984 100.777 34.1275 100.936 33.9036C101.102 33.6724 101.304 33.4955 101.543 33.3727C101.781 33.2426 102.045 33.1776 102.334 33.1776C102.832 33.1776 103.237 33.3149 103.547 33.5894C103.865 33.8639 104.064 34.2467 104.143 34.7379L103.97 34.7271C104.028 34.3948 104.132 34.1167 104.284 33.8928C104.443 33.6616 104.645 33.4846 104.891 33.3618C105.136 33.239 105.418 33.1776 105.736 33.1776C106.148 33.1776 106.495 33.2643 106.776 33.4377C107.058 33.6038 107.271 33.8494 107.416 34.1745C107.56 34.4996 107.632 34.8933 107.632 35.3556V39.0505H106.722V35.5506C106.722 35.0305 106.621 34.6404 106.419 34.3804C106.216 34.1131 105.917 33.9795 105.519 33.9795C105.252 33.9795 105.017 34.0445 104.815 34.1745C104.62 34.3045 104.468 34.4923 104.36 34.7379C104.252 34.9763 104.197 35.2689 104.197 35.6156V39.0505H103.287V35.6156C103.287 35.1027 103.197 34.7018 103.016 34.4129C102.836 34.1239 102.532 33.9795 102.106 33.9795C101.839 33.9795 101.604 34.0445 101.402 34.1745C101.207 34.3045 101.051 34.4923 100.936 34.7379C100.828 34.9836 100.773 35.2761 100.773 35.6156V39.0505H99.8632Z" fill="#B9F34F"/>
<path d="M109.26 39.0505V33.3076H110.17V39.0505H109.26ZM109.238 32.4083V31.3464H110.191V32.4083H109.238Z" fill="#B9F34F"/>
<path d="M113.573 39.0505C113.053 39.0505 112.667 38.9313 112.414 38.6929C112.168 38.4546 112.045 38.0825 112.045 37.5769V31.964H112.956V37.5552C112.956 37.8153 113.013 37.9958 113.129 38.097C113.245 38.1981 113.422 38.2487 113.66 38.2487H114.483V39.0505H113.573ZM111.2 34.1095V33.3076H114.483V34.1095H111.2Z" fill="#B9F34F"/>
<path d="M0.5 24.3451V0.537025H4.84094L5.01995 6.8918L4.43817 6.57854C4.70668 5.02714 5.21387 3.77408 5.95974 2.81937C6.7056 1.86467 7.61556 1.16355 8.68961 0.716033C9.76365 0.238678 10.9272 0 12.1803 0C13.9703 0 15.4472 0.402768 16.6107 1.2083C17.8041 1.984 18.6991 3.05805 19.2958 4.43044C19.9223 5.773 20.2356 7.30949 20.2356 9.0399V24.3451H15.4919V10.472C15.4919 9.06973 15.3427 7.89126 15.0444 6.93655C14.746 5.98184 14.2538 5.2509 13.5676 4.74371C12.8814 4.23652 11.9863 3.98292 10.8825 3.98292C9.21171 3.98292 7.85424 4.53487 6.81003 5.63875C5.76581 6.74263 5.24371 8.3537 5.24371 10.472V24.3451H0.5Z" fill="#B9F34F"/>
<path d="M47.593 24.3451L56.2302 12.1725L47.9511 0.537025H53.2318L59.0943 9.08465L64.7778 0.537025H70.1928L62.0032 12.262L70.5508 24.3451H65.2701L59.139 15.2604L52.9633 24.3451H47.593Z" fill="#B9F34F"/>
<path d="M80.3018 24.8821C77.9151 24.8821 76.0056 24.0915 74.5736 22.5102C73.1713 20.8992 72.4702 18.6765 72.4702 15.8422V0.537025H77.2139V14.6339C77.2139 16.782 77.5869 18.3632 78.3327 19.3776C79.0786 20.392 80.2123 20.8992 81.7339 20.8992C83.4643 20.8992 84.8068 20.3472 85.7616 19.2433C86.7461 18.1096 87.2384 16.5284 87.2384 14.4996V0.537025H91.9821V24.3451H87.5516L87.4621 18.1245L88.1334 18.3931C87.7157 20.4815 86.8356 22.0925 85.493 23.2263C84.1505 24.3301 82.4201 24.8821 80.3018 24.8821Z" fill="#B9F34F"/>
<path d="M104.744 24.8821C102.506 24.8821 100.612 24.539 99.0606 23.8528C97.539 23.1666 96.3605 22.2268 95.5252 21.0334C94.6898 19.8102 94.2124 18.408 94.0931 16.8267L98.9711 16.603C99.2097 17.9157 99.7766 18.9599 100.672 19.7356C101.567 20.5113 102.924 20.8992 104.744 20.8992C106.236 20.8992 107.414 20.6605 108.279 20.1831C109.145 19.7058 109.577 18.945 109.577 17.9008C109.577 17.3339 109.428 16.8566 109.13 16.4687C108.861 16.051 108.324 15.7079 107.519 15.4394C106.713 15.1411 105.52 14.8576 103.939 14.5891C101.582 14.1416 99.7319 13.6195 98.3893 13.0228C97.0467 12.4261 96.092 11.6653 95.5252 10.7405C94.9583 9.8156 94.6749 8.6968 94.6749 7.38407C94.6749 5.20614 95.4804 3.43098 97.0915 2.05859C98.7324 0.686197 101.089 0 104.162 0C106.221 0 107.951 0.358015 109.354 1.07405C110.756 1.76024 111.845 2.70004 112.62 3.89342C113.426 5.05697 113.933 6.3697 114.142 7.83159L109.264 8.1001C109.115 7.26473 108.817 6.5487 108.369 5.95201C107.951 5.32548 107.384 4.84813 106.668 4.51995C105.952 4.16193 105.102 3.98292 104.118 3.98292C102.596 3.98292 101.462 4.28127 100.716 4.87796C99.9705 5.47466 99.5976 6.25036 99.5976 7.20507C99.5976 7.9211 99.7617 8.50287 100.09 8.95039C100.448 9.39791 101.015 9.77084 101.79 10.0692C102.566 10.3377 103.595 10.5764 104.878 10.7852C107.355 11.2029 109.294 11.725 110.696 12.3515C112.098 12.9482 113.083 13.6941 113.65 14.5891C114.217 15.4842 114.5 16.5731 114.5 17.856C114.5 19.3478 114.082 20.6157 113.247 21.6599C112.412 22.7042 111.263 23.5097 109.801 24.0766C108.339 24.6136 106.653 24.8821 104.744 24.8821Z" fill="#B9F34F"/>
<path fill-rule="evenodd" clip-rule="evenodd" d="M35.3269 24.8611C32.9998 24.8611 30.9856 24.375 29.2851 23.3606C27.6143 22.3462 26.3165 20.8992 25.3916 19.0196C24.4966 17.1401 24.0491 14.9472 24.0491 12.4411C24.0491 9.93499 24.4966 7.75707 25.3916 5.90732C26.3165 4.02774 27.6143 2.58076 29.2851 1.56638C30.9558 0.522167 32.9249 6.10352e-05 35.1923 6.10352e-05C37.3404 6.10352e-05 39.2349 0.50725 40.8758 1.52163C42.5167 2.50617 43.7847 3.93823 44.6797 5.81781C45.6046 7.6974 46.067 9.96483 46.067 12.6201V13.8284H28.9718C29.0911 16.1555 29.7027 17.9008 30.8066 19.0644C31.9403 20.2279 33.4175 20.7332 35.3269 20.7332V24.8611ZM41.0548 10.2483H28.9718C29.2403 8.2195 29.9116 6.68302 30.9856 5.63881C32.0895 4.56476 33.4917 4.02774 35.1923 4.02774C36.8332 4.02774 38.1758 4.53492 39.22 5.5493C40.294 6.56368 40.9056 8.13 41.0548 10.2483Z" fill="#B9F34F"/>
<path d="M44.3566 21.3782C44.3566 23.2305 42.855 24.7321 41.0027 24.7321C39.1504 24.7321 37.6489 23.2305 37.6489 21.3782C37.6489 19.5259 39.1504 18.0244 41.0027 18.0244C42.855 18.0244 44.3566 19.5259 44.3566 21.3782Z" fill="#B9F34F"/>
</svg>
