<svg width="24" height="25" viewBox="0 0 24 25" fill="none" xmlns="http://www.w3.org/2000/svg">
<path d="M2 9.16917C2 7.97299 2.48238 7.23992 3.48063 6.68438L7.58987 4.39754C9.7431 3.19925 10.8197 2.6001 12 2.6001C13.1803 2.6001 14.2569 3.19925 16.4101 4.39754L20.5194 6.68438C21.5176 7.23992 22 7.973 22 9.16917C22 9.49353 22 9.65571 21.9646 9.78904C21.7785 10.4895 21.1437 10.6001 20.5307 10.6001H3.46928C2.85627 10.6001 2.22152 10.4895 2.03542 9.78904C2 9.65571 2 9.49353 2 9.16917Z" stroke="black" stroke-width="1.5"/>
<path d="M11.9961 7.6001H12.0051" stroke="black" stroke-width="2" stroke-linecap="round" stroke-linejoin="round"/>
<path d="M4 10.6001V19.1001M8 10.6001V19.1001" stroke="black" stroke-width="1.5"/>
<path d="M16 10.6001V19.1001M20 10.6001V19.1001" stroke="black" stroke-width="1.5"/>
<path d="M19 19.1001H5C3.34315 19.1001 2 20.4432 2 22.1001C2 22.3762 2.22386 22.6001 2.5 22.6001H21.5C21.7761 22.6001 22 22.3762 22 22.1001C22 20.4432 20.6569 19.1001 19 19.1001Z" stroke="black" stroke-width="1.5"/>
</svg>
