<svg width="181" height="24" viewBox="0 0 181 24" fill="none" xmlns="http://www.w3.org/2000/svg">
<path d="M181 23.0737L175.529 12.9051L169.458 22.7275L181 23.0737ZM88 1.94282L87.9554 2.94183L87.9903 2.94338L88.0252 2.9425L88 1.94282ZM1 23.0737C1.60973 23.8663 1.60965 23.8664 1.60958 23.8665C1.60957 23.8665 1.6095 23.8665 1.60947 23.8665C1.60941 23.8666 1.60937 23.8666 1.60936 23.8666C1.60934 23.8666 1.60941 23.8666 1.60958 23.8665C1.60992 23.8662 1.61064 23.8656 1.61176 23.8648C1.614 23.8631 1.61779 23.8602 1.62314 23.8561C1.63383 23.848 1.65075 23.8352 1.67388 23.8179C1.72014 23.7833 1.79122 23.7307 1.88702 23.6611C2.07861 23.5219 2.36903 23.315 2.7573 23.0496C3.53386 22.5189 4.70175 21.7544 6.25325 20.83L5.74137 19.9709L5.22949 19.1118C3.64067 20.0586 2.43788 20.8455 1.62883 21.3984C1.2243 21.6749 0.918184 21.8928 0.711443 22.043C0.608072 22.1181 0.529542 22.1763 0.475974 22.2164C0.44919 22.2364 0.428646 22.2519 0.414357 22.2628C0.407212 22.2682 0.401632 22.2724 0.397616 22.2755C0.395609 22.277 0.393993 22.2783 0.392768 22.2792C0.392156 22.2797 0.391641 22.2801 0.391225 22.2804C0.391017 22.2805 0.390833 22.2807 0.390674 22.2808C0.390594 22.2809 0.390493 22.2809 0.390453 22.281C0.390358 22.2811 0.39027 22.2811 1 23.0737ZM15.8468 14.7165L16.2618 15.6264C19.2944 14.2434 22.7863 12.8046 26.7269 11.4116L26.3936 10.4688L26.0604 9.52599C22.0618 10.9395 18.5155 12.4004 15.4319 13.8067L15.8468 14.7165ZM37.2478 7.1172L37.5051 8.08352C40.9428 7.16809 44.6179 6.32283 48.5262 5.58793L48.3414 4.60515L48.1566 3.62238C44.1984 4.36667 40.4749 5.223 36.9904 6.15087L37.2478 7.1172ZM59.597 2.89963L59.7123 3.89296C63.3079 3.4757 67.062 3.15972 70.9724 2.9681L70.9234 1.9693L70.8745 0.970499C66.9193 1.16431 63.1209 1.48398 59.4817 1.90629L59.597 2.89963ZM82.3077 1.77494L82.2934 2.77484C84.1507 2.80131 86.0381 2.8563 87.9554 2.94183L88 1.94282L88.0446 0.943815C86.107 0.857386 84.1994 0.801797 82.3219 0.775044L82.3077 1.77494ZM88 1.94282L88.0252 2.9425C90.0674 2.89093 92.0753 2.86554 94.049 2.86468L94.0486 1.86468L94.0482 0.864676C92.0579 0.865549 90.0334 0.891146 87.9748 0.94314L88 1.94282ZM106.146 2.17268L106.094 3.17133C110.269 3.38862 114.267 3.71522 118.088 4.13122L118.196 3.1371L118.304 2.14297C114.446 1.72291 110.411 1.39328 106.198 1.17403L106.146 2.17268ZM130.167 4.80711L129.998 5.79276C134.184 6.50976 138.108 7.32737 141.77 8.20955L142.004 7.23737L142.238 6.26519C138.534 5.3727 134.566 4.54607 130.335 3.82146L130.167 4.80711ZM153.648 10.4954L153.342 11.4475C157.601 12.815 161.354 14.2274 164.604 15.5879L164.99 14.6654L165.376 13.743C162.075 12.3611 158.268 10.9287 153.954 9.54329L153.648 10.4954Z" fill="white"/>
</svg>
